<?xml version="1.0" encoding="utf-8"?>
<!-- Generator: Adobe Illustrator 23.0.1, SVG Export Plug-In . SVG Version: 6.00 Build 0)  -->
<svg version="1.1" id="Layer_1" xmlns="http://www.w3.org/2000/svg" xmlns:xlink="http://www.w3.org/1999/xlink" x="0px" y="0px"
	 viewBox="0 0 43 40" style="enable-background:new 0 0 43 40;" xml:space="preserve">
<style type="text/css">
	.st0{fill:#ECEAE2;}
</style>
<path class="st0" d="M12.8,25.7H7.9c-0.4,0-0.7,0.3-0.7,0.7v3.5c0,0.4,0.3,0.7,0.7,0.7h0.5h4.4v2.3H6.7C5.8,32.8,5,32,5,31v-5.9
	c0-1,0.8-1.8,1.8-1.8h6.1L12.8,25.7L12.8,25.7z"/>
<path class="st0" d="M14.6,19.2c0,1-0.8,1.9-1.9,1.9H5v-2.4h6.6c0.4,0,0.7-0.3,0.7-0.7v-7.8c0-0.4-0.3-0.7-0.7-0.7H8
	c-0.4,0-0.7,0.3-0.7,0.7v3.5c0,0.4,0.3,0.7,0.7,0.7h2.8v2.4H6.7c-1,0-1.9-0.8-1.9-1.9v-6c0-1,0.8-1.9,1.9-1.9h6c1,0,1.9,0.8,1.9,1.9
	C14.6,8.9,14.6,19.2,14.6,19.2z"/>
<path class="st0" d="M37.6,32.9h-2.3v-7.2h-1.6c-0.4,0-0.7,0.3-0.7,0.7v6.5h-2.3v-7.2h-1.6c-0.4,0-0.7,0.3-0.7,0.7v6.5h-2.3v-7.7
	c0-1,0.8-1.8,1.8-1.8h9.7V32.9z"/>
<path class="st0" d="M37.6,19.2c0,1-0.8,1.9-1.9,1.9H28v-2.4h6.6c0.4,0,0.7-0.3,0.7-0.7v-7.8c0-0.4-0.3-0.7-0.7-0.7H31
	c-0.4,0-0.7,0.3-0.7,0.7v3.5c0,0.4,0.3,0.7,0.7,0.7h2.8v2.4h-4.1c-1,0-1.9-0.8-1.9-1.9v-6c0-1,0.8-1.9,1.9-1.9h6
	c1,0,1.9,0.8,1.9,1.9V19.2z"/>
<path class="st0" d="M23.8,10.2v3.6c0,0.4-0.3,0.7-0.7,0.7h-3.6c-0.4,0-0.7-0.3-0.7-0.7v-3.6c-0.1-0.4,0.3-0.7,0.7-0.7h3.6
	C23.5,9.4,23.8,9.8,23.8,10.2z M24.3,7.1h-6c-1,0-1.9,0.8-1.9,1.9v6c0,1,0.8,1.9,1.9,1.9h6c1,0,1.9-0.8,1.9-1.9V9
	C26.1,8,25.3,7.1,24.3,7.1z"/>
<path class="st0" d="M21.9,26.4v3.5c0,0.4-0.3,0.7-0.7,0.7h-3.5c-0.4,0-0.7-0.3-0.7-0.7v-3.5c0-0.4,0.3-0.7,0.7-0.7h3.5
	C21.6,25.7,21.9,26,21.9,26.4z M22.4,23.3h-5.9c-1,0-1.8,0.8-1.8,1.8V31c0,1,0.8,1.8,1.8,1.8h5.9c1,0,1.8-0.8,1.8-1.8v-5.9
	C24.2,24.2,23.4,23.3,22.4,23.3z"/>
<path class="st0" d="M41.4,37c0,0.6-0.2,1.1-0.7,1.6c-0.4,0.4-1,0.7-1.6,0.7H3.3c-0.6,0-1.1-0.2-1.6-0.7C1.3,38.2,1,37.6,1,37V3
	c0-0.6,0.2-1.1,0.7-1.6c0.4-0.4,1-0.7,1.6-0.7h35.8c0.6,0,1.1,0.2,1.6,0.7c0.4,0.4,0.7,1,0.7,1.6C41.4,3,41.4,37,41.4,37z M41.4,0.9
	C40.8,0.4,40,0,39.2,0H3.4C2.6,0,1.8,0.4,1.3,0.9C0.7,1.4,0.4,2.2,0.4,3v34c0,0.8,0.4,1.6,0.9,2.2C1.8,39.6,2.6,40,3.4,40h35.8
	c0.8,0,1.6-0.4,2.1-0.9s0.9-1.3,0.9-2.2V3C42.2,2.2,41.9,1.5,41.4,0.9z"/>
</svg>
