<svg viewBox="0 0 82 82" fill="none" xmlns="http://www.w3.org/2000/svg">
<path d="M43.316 51.7386H51.2792C53.0214 51.7386 54.7465 51.3953 56.356 50.7285C57.9655 50.0617 59.4279 49.0843 60.6596 47.8522C61.8914 46.6201 62.8683 45.1574 63.5346 43.5477C64.201 41.938 64.5437 40.2128 64.5431 38.4706V13.268C64.5437 11.5258 64.201 9.80056 63.5346 8.19084C62.8683 6.58112 61.8914 5.11844 60.6596 3.88634C59.4279 2.65425 57.9655 1.67687 56.356 1.01004C54.7465 0.343212 53.0214 5.41137e-07 51.2792 6.22951e-07H43.2713C43.227 6.22951e-07 43.1831 0.00872398 43.1422 0.0256794C43.1012 0.0426349 43.0641 0.0674848 43.0327 0.0988143C43.0014 0.130144 42.9765 0.167338 42.9596 0.208272C42.9426 0.249206 42.9339 0.293079 42.9339 0.337385V51.3808C42.9401 51.4779 42.9831 51.5689 43.0541 51.6354C43.1251 51.7019 43.2188 51.7388 43.316 51.7386ZM53.1897 23.223C54.2245 23.223 55.2359 23.5298 56.0963 24.1047C56.9566 24.6795 57.6271 25.4966 58.0231 26.4525C58.4191 27.4085 58.5227 28.4604 58.3208 29.4752C58.1189 30.49 57.6207 31.4222 56.889 32.1539C56.1574 32.8855 55.2252 33.3838 54.2104 33.5856C53.1955 33.7875 52.1437 33.6839 51.1877 33.2879C50.2318 32.892 49.4147 32.2214 48.8399 31.3611C48.265 30.5008 47.9582 29.4893 47.9582 28.4546C47.9582 27.0671 48.5093 25.7364 49.4905 24.7553C50.4716 23.7742 51.8022 23.223 53.1897 23.223ZM37.3812 6.22951e-07H26.0725C24.3304 -0.000533297 22.6051 0.342148 20.9954 1.00848C19.3857 1.67482 17.923 2.65175 16.6909 3.88347C15.4588 5.11519 14.4814 6.57757 13.8146 8.18708C13.1478 9.7966 12.8046 11.5217 12.8046 13.2639V38.4665C12.8046 41.9854 14.2024 45.3602 16.6907 47.8484C19.1789 50.3366 22.5536 51.7345 26.0725 51.7345H37.3812C37.4745 51.7307 37.5632 51.6924 37.63 51.6271C37.6968 51.5618 37.737 51.4741 37.743 51.3808V0.378037C37.7431 0.280529 37.7055 0.186759 37.6381 0.116312C37.5706 0.0458652 37.4786 0.00419446 37.3812 6.22951e-07ZM33.5886 47.5598H26.0725C23.6598 47.5598 21.3458 46.6013 19.6397 44.8952C17.9337 43.1892 16.9752 40.8752 16.9752 38.4625V13.2598C16.9741 12.0649 17.2087 10.8814 17.6655 9.77717C18.1223 8.67295 18.7924 7.66964 19.6374 6.82466C20.4823 5.97968 21.4856 5.30962 22.5899 4.85281C23.6941 4.39601 24.8776 4.16143 26.0725 4.1625H33.5886V47.5598ZM20.8613 15.5118C20.8613 16.4766 21.1474 17.4197 21.6834 18.2218C22.2194 19.024 22.9812 19.6492 23.8725 20.0184C24.7638 20.3876 25.7446 20.4842 26.6908 20.296C27.6371 20.1078 28.5062 19.6432 29.1884 18.961C29.8706 18.2788 30.3352 17.4097 30.5234 16.4634C30.7116 15.5172 30.615 14.5364 30.2458 13.6451C29.8766 12.7538 29.2514 11.992 28.4492 11.456C27.6471 10.92 26.704 10.6339 25.7392 10.6339C25.0979 10.6339 24.463 10.7603 23.8706 11.006C23.2783 11.2516 22.7402 11.6116 22.2871 12.0655C21.834 12.5193 21.4749 13.058 21.2302 13.6507C20.9856 14.2435 20.8602 14.8787 20.8613 15.5199V15.5118ZM1.86175 61.7627L5.07305 66.0837H6.34538V59.6245H5.03647V63.8683L1.85768 59.6245H0.552838V66.0837H1.86175V61.7627ZM33.3975 59.6245H27.9261V60.9944H29.9911V66.0837H31.3813V60.9944H33.4138L33.3975 59.6245ZM32.9911 81.5752H35.7105V69.3804H32.9992L32.9911 81.5752ZM18.841 61.7627L22.0482 66.0837H23.3246V59.6245H22.0116V63.8683L18.8329 59.6245H17.528V66.0837H18.841V61.7627ZM24.9669 78.2338L22.3816 69.3885H20.219L17.65 78.2094L15.3086 69.3967H12.6542L16.1012 81.5915H19.0442L21.3165 73.5592L23.5767 81.5915H26.5156L29.983 69.3967H27.3327L24.9669 78.2338ZM5.61368 74.1689C3.8495 73.8762 2.71538 73.551 2.71538 72.7299C2.71538 71.7828 3.97958 71.4169 5.67872 71.4169C6.96368 71.4661 8.22862 71.7513 9.41033 72.2584L10.2762 70.1487C8.7711 69.5585 7.17312 69.2406 5.55678 69.2097C2.9227 69.2097 0.121956 70.4942 0.121956 72.8681C0.121956 74.799 1.4837 75.7827 4.97955 76.3843C7.44291 76.7908 8.8006 77.0428 8.75995 78.0997C8.73963 78.6851 8.28842 79.6647 5.508 79.6647C3.98177 79.6764 2.47966 79.2837 1.15444 78.5265L0 80.6078C1.65366 81.4458 3.47936 81.8883 5.3332 81.9004C9.21115 81.9004 11.2599 80.5549 11.2599 78.0143C11.264 76.555 10.768 75.0225 5.62994 74.177L5.61368 74.1689ZM12.6582 59.6164H11.2192V66.0756H12.6582V59.6164ZM54.3035 66.0756V59.6245H52.9906V63.8683L49.8118 59.6245H48.5069V66.0837H49.8158V61.7627L53.0271 66.0837L54.3035 66.0756ZM43.1534 64.8805H39.438V63.3724H42.8729V62.2058H39.438V60.8115H43.1534V59.6245H38.1495V66.0837H43.1737L43.1534 64.8805ZM77.5387 80.1037H78.0956V81.5712H78.4493V80.1037H78.994V79.7582H77.5387V80.1037ZM73.3803 59.3969C72.6974 59.3953 72.0293 59.5963 71.4607 59.9746C70.8921 60.3528 70.4485 60.8912 70.1861 61.5217C69.9236 62.1522 69.8541 62.8463 69.9864 63.5163C70.1186 64.1863 70.4467 64.802 70.929 65.2855C71.4113 65.7689 72.0262 66.0984 72.6959 66.2323C73.3656 66.3661 74.0599 66.2982 74.691 66.0372C75.3221 65.7763 75.8615 65.3339 76.2411 64.7662C76.6207 64.1985 76.8233 63.5309 76.8233 62.848C76.8212 61.9356 76.4577 61.0611 75.8125 60.4158C75.1673 59.7706 74.2928 59.4072 73.3803 59.405V59.3969ZM73.3803 64.8561C72.982 64.8569 72.5924 64.7395 72.2609 64.5187C71.9294 64.2979 71.6708 63.9837 71.5181 63.6159C71.3652 63.248 71.3251 62.8431 71.4026 62.4524C71.4801 62.0617 71.6718 61.7028 71.9534 61.4212C72.2351 61.1395 72.594 60.9478 72.9847 60.8703C73.3754 60.7928 73.7803 60.833 74.1481 60.9858C74.516 61.1386 74.8302 61.3971 75.051 61.7286C75.2718 62.0601 75.3892 62.4497 75.3884 62.848C75.3842 63.3801 75.1715 63.8892 74.7961 64.2662C74.4206 64.6432 73.9123 64.8579 73.3803 64.8643V64.8561ZM80.8313 79.7663L80.3761 81.0915L79.9167 79.7663H79.4167V81.5793H79.7379V80.1891L80.2135 81.563H80.5265L80.998 80.1891V81.5793H81.3232V79.7663H80.8313ZM73.8152 74.1933H68.1243V69.3885H65.6041V81.5833H68.1243V76.7054H73.8152V81.5833H76.3599V69.3885H73.8396L73.8152 74.1933ZM38.682 71.9779H42.5762V81.5793H45.1981V71.9779H49.0069V69.3885H38.682V71.9779ZM57.4823 71.7015C58.156 71.702 58.818 71.8767 59.4042 72.2086C59.9904 72.5405 60.4808 73.0183 60.8278 73.5957L62.8115 71.8681C62.034 70.7113 60.9054 69.8349 59.5921 69.368C58.2788 68.9011 56.8503 68.8684 55.5171 69.2748C54.1838 69.6812 53.0164 70.5052 52.1868 71.6253C51.3573 72.7453 50.9095 74.1023 50.9095 75.4961C50.9095 76.8899 51.3573 78.2469 52.1868 79.3669C53.0164 80.487 54.1838 81.311 55.5171 81.7174C56.8503 82.1238 58.2788 82.0911 59.5921 81.6242C60.9054 81.1573 62.034 80.2809 62.8115 79.1241L60.8359 77.3965C60.4886 77.9736 59.9981 78.4512 59.412 78.7831C58.8259 79.115 58.164 79.2898 57.4905 79.2907C56.4835 79.2907 55.5178 78.8907 54.8058 78.1787C54.0938 77.4667 53.6938 76.501 53.6938 75.4941C53.6938 74.4871 54.0938 73.5214 54.8058 72.8094C55.5178 72.0974 56.4835 71.6974 57.4905 71.6974L57.4823 71.7015ZM62.4334 59.6245H59.7587V66.0837H62.4334C62.8672 66.0991 63.2996 66.027 63.7048 65.8716C64.1101 65.7162 64.4799 65.4808 64.7922 65.1794C65.1045 64.878 65.3529 64.5168 65.5226 64.1172C65.6922 63.7177 65.7796 63.2882 65.7796 62.8541C65.7796 62.4201 65.6922 61.9905 65.5226 61.591C65.3529 61.1915 65.1045 60.8303 64.7922 60.5289C64.4799 60.2275 64.1101 59.992 63.7048 59.8367C63.2996 59.6813 62.8672 59.6091 62.4334 59.6245ZM62.4985 64.726H61.0879V60.9822H62.4985C62.9798 61.0047 63.4341 61.2117 63.7668 61.5603C64.0995 61.9089 64.2851 62.3722 64.2851 62.8541C64.2851 63.336 64.0995 63.7994 63.7668 64.148C63.4341 64.4966 62.9798 64.7036 62.4985 64.726Z" fill="#ECEAE2"/>
</svg>
