<?xml version="1.0" encoding="utf-8"?>
<!-- Generator: Adobe Illustrator 23.0.1, SVG Export Plug-In . SVG Version: 6.00 Build 0)  -->
<svg version="1.1" id="Layer_1" xmlns="http://www.w3.org/2000/svg" xmlns:xlink="http://www.w3.org/1999/xlink" x="0px" y="0px"
	 viewBox="0 0 105 34" style="enable-background:new 0 0 105 34;" xml:space="preserve">
<style type="text/css">
	.st0{fill:#ECEAE2;}
</style>
<path class="st0" d="M17.2,0C26.5,0,34,7.6,34,17s-7.6,17-16.8,17C9.5,34,3.1,28.8,1,21.7l6.4,2.7c0.4,2.2,2.4,3.9,4.7,3.9
	c2.6,0,4.8-2.2,4.8-4.8c0-0.1,0-0.1,0-0.2l5.7-4.1c0.1,0,0.1,0,0.1,0c3.5,0,6.3-2.9,6.3-6.4s-2.8-6.4-6.3-6.4s-6.3,2.9-6.3,6.4v0.1
	l-4,5.8c-0.1,0-0.1,0-0.3,0c-1,0-1.9,0.3-2.7,0.9l-8.9-3.8C1.1,6.9,8.4,0,17.2,0z M11,25.8l-2.1-0.9c0.4,0.8,1,1.4,1.9,1.8
	c1.8,0.8,3.9-0.1,4.7-1.9c0.4-0.9,0.4-1.9,0-2.7c-0.4-0.9-1.1-1.6-1.9-1.9c-0.9-0.4-1.8-0.4-2.7-0.1l2.2,0.9
	c1.4,0.6,1.9,2.1,1.4,3.5C13.9,25.7,12.4,26.4,11,25.8z M19.6,12.6c0,1.8,1.4,3.2,3.2,3.2c1.7,0,3.2-1.4,3.2-3.2s-1.4-3.2-3.2-3.2
	C21,9.4,19.6,10.9,19.6,12.6z M27,12.6c0,2.4-1.9,4.2-4.2,4.2s-4.2-1.9-4.2-4.2c0-2.4,1.9-4.2,4.2-4.2S27,10.3,27,12.6z M51.7,11.8
	c-0.8-0.6-2.3-1.2-4.1-1.2c-2.7,0-4.5,1.3-4.5,3.6c0,2,1.4,3,3.4,3.6c1.7,0.6,2.8,0.9,2.8,1.8c0,0.8-0.7,1.4-2.2,1.4
	c-1.1,0-2.4-0.4-3.4-0.9l-0.8,2.2c1.3,0.8,3,1.2,4.3,1.2c2.8,0,4.8-1.4,4.8-4c0-1.9-1.2-2.7-3.2-3.4c-1.9-0.6-3.1-0.9-3.1-1.9
	c0-0.9,0.7-1.3,1.9-1.3c1,0,2.2,0.4,3,0.9L51.7,11.8z M63.9,13v-2.2h-10V13h3.7v10.2h2.6V13H63.9z M75.1,13v-2.2h-8.3v12.4h8.3V21
	h-5.7v-2.9h4.9v-2.2h-4.9V13H75.1z M84.9,18.7h-3.4l1.7-5L84.9,18.7z M85.6,20.8l0.9,2.4h2.8l-4.8-12.4h-2.6l-4.6,12.4H80l0.8-2.4
	H85.6z M102.5,23.2h2.4V10.8h-2.4l-4,8.9l-4.1-8.9H92v12.4h2.4v-7.6l3.3,7.2h1.4l3.4-7.3L102.5,23.2z"/>
</svg>
